# xmcd
#
# Track frame offsets: 
#        150
#        15252
#        28250
#        41742
#        55235
#        68510
#        82832
#        96682
#        110860
#        124892
#        138242
#        150737
#        164905
#        179477
#        192362
#        206315
#        219745
#        233087
#        248142
#        262282
#        275045
#        287542
#        301985
#        315547
#        330397
#
# Disc length: 4573 seconds
#
# Revision: 1
# Processed by: cddbd v1.5.2PL0 Copyright (c) Steve Scherf et al.
# Submitted via: ExactAudioCopy v1.1
#
DISCID=7711db19
DTITLE=Mamie Smith - The Best Of Mamie Smith (Roots N' Blues)
DYEAR=2004
DGENRE=Blues
TTITLE0=Crazy Blues (mono)
TTITLE1=It's Right Here For You (mono)
TTITLE2=Don't Care Blues (mono)
TTITLE3=Frankie Blues (mono)
TTITLE4='U' Need Some Lovin' Blues (mono)
TTITLE5=A-Wearin' Away The Blues (mono)
TTITLE6=Down Home Blues (mono)
TTITLE7=The Wang Wang Blues (mono)
TTITLE8=Wabash Blues (mono)
TTITLE9=Mean Daddy Blues (mono)
TTITLE10=Dem Knock-Out Blues (mono)
TTITLE11=Arkansas Blues (mono)
TTITLE12=Mamie Smith Blues (mono)
TTITLE13=That Da Da Strain (mono)
TTITLE14=I Ain't Gonna Give Nobody None O' This Jelly Roll (mono)
TTITLE15=Mean Man (mono)
TTITLE16=The Darktown Flapper's Ball (mono)
TTITLE17=Kansas City Man Blues (mono)
TTITLE18=Do It Mr. So-And-So (mono)
TTITLE19=The Lure Of The South (mono)
TTITLE20=Golfing Papa (mono)
TTITLE21=(There'll Be No Freebies At) Miss Jenny's Ball (mono)
TTITLE22=My Sportin' Man (mono)
TTITLE23=Don't You Advertise Your Man (mono)
TTITLE24=Keep A Song In Your Soul (mono)
EXTD=Columbia/Legacy label
EXTT0=
EXTT1=
EXTT2=
EXTT3=
EXTT4=
EXTT5=
EXTT6=
EXTT7=
EXTT8=
EXTT9=
EXTT10=
EXTT11=
EXTT12=
EXTT13=
EXTT14=
EXTT15=
EXTT16=
EXTT17=
EXTT18=
EXTT19=
EXTT20=
EXTT21=
EXTT22=
EXTT23=
EXTT24=
PLAYORDER=
